<svg width="262" height="262" viewBox="0 0 262 262" fill="none" xmlns="http://www.w3.org/2000/svg">
<path d="M138.444 188.888C138.444 161.273 160.83 138.888 188.444 138.888C216.058 138.888 238.444 161.273 238.444 188.888C238.444 216.502 216.058 238.888 188.444 238.888C160.83 238.888 138.444 216.502 138.444 188.888Z" fill="#818CF8"/>
<path d="M138.444 74C138.444 46.3858 160.83 24 188.444 24C216.058 24 238.444 46.3858 238.444 74V119C238.444 121.761 236.205 124 233.444 124H143.444C140.683 124 138.444 121.761 138.444 119V74Z" fill="#A5B4FC"/>
<path d="M123 188.888C123 216.502 100.614 238.888 73 238.888C45.3858 238.888 23 216.502 23 188.888L23 143.888C23 141.126 25.2386 138.888 28 138.888H118C120.761 138.888 123 141.126 123 143.888V188.888Z" fill="#6366F1"/>
</svg>
